<svg id="visual" viewBox="0 0 900 600" width="900" height="600" xmlns="http://www.w3.org/2000/svg" xmlns:xlink="http://www.w3.org/1999/xlink" version="1.1"><rect x="0" y="0" width="900" height="600" fill="#ffffff"></rect><defs><linearGradient id="grad1_0" x1="33.3%" y1="0%" x2="100%" y2="100%"><stop offset="20%" stop-color="#aba2ea" stop-opacity="1"></stop><stop offset="80%" stop-color="#aba2ea" stop-opacity="1"></stop></linearGradient></defs><defs><linearGradient id="grad1_1" x1="33.3%" y1="0%" x2="100%" y2="100%"><stop offset="20%" stop-color="#aba2ea" stop-opacity="1"></stop><stop offset="80%" stop-color="#d6d0f5" stop-opacity="1"></stop></linearGradient></defs><defs><linearGradient id="grad1_2" x1="33.3%" y1="0%" x2="100%" y2="100%"><stop offset="20%" stop-color="#ffffff" stop-opacity="1"></stop><stop offset="80%" stop-color="#d6d0f5" stop-opacity="1"></stop></linearGradient></defs><defs><linearGradient id="grad2_0" x1="0%" y1="0%" x2="66.7%" y2="100%"><stop offset="20%" stop-color="#aba2ea" stop-opacity="1"></stop><stop offset="80%" stop-color="#aba2ea" stop-opacity="1"></stop></linearGradient></defs><defs><linearGradient id="grad2_1" x1="0%" y1="0%" x2="66.7%" y2="100%"><stop offset="20%" stop-color="#d6d0f5" stop-opacity="1"></stop><stop offset="80%" stop-color="#aba2ea" stop-opacity="1"></stop></linearGradient></defs><defs><linearGradient id="grad2_2" x1="0%" y1="0%" x2="66.7%" y2="100%"><stop offset="20%" stop-color="#d6d0f5" stop-opacity="1"></stop><stop offset="80%" stop-color="#ffffff" stop-opacity="1"></stop></linearGradient></defs><g transform="translate(900, 0)"><path d="M0 351.5C-39.2 330.9 -78.3 310.2 -122.8 296.6C-167.4 282.9 -217.3 276.3 -248.6 248.6C-279.9 220.8 -292.7 172 -306.7 127.1C-320.8 82.1 -336.2 41.1 -351.5 0L0 0Z" fill="#ebe7fa"></path><path d="M0 234.4C-26.1 220.6 -52.2 206.8 -81.9 197.7C-111.6 188.6 -144.8 184.2 -165.7 165.7C-186.6 147.2 -195.1 114.7 -204.5 84.7C-213.9 54.7 -224.1 27.4 -234.4 0L0 0Z" fill="#c1b9f0"></path><path d="M0 117.2C-13.1 110.3 -26.1 103.4 -40.9 98.9C-55.8 94.3 -72.4 92.1 -82.9 82.9C-93.3 73.6 -97.6 57.3 -102.2 42.4C-106.9 27.4 -112.1 13.7 -117.2 0L0 0Z" fill="#aba2ea"></path></g><g transform="translate(0, 600)"><path d="M0 -351.5C48.5 -342.4 96.9 -333.3 126.3 -304.9C155.6 -276.5 165.8 -228.8 200.8 -200.8C235.8 -172.9 295.5 -164.7 324.8 -134.5C354 -104.4 352.8 -52.2 351.5 0L0 0Z" fill="#ebe7fa"></path><path d="M0 -234.4C32.3 -228.3 64.6 -222.2 84.2 -203.3C103.8 -184.3 110.6 -152.5 133.9 -133.9C157.2 -115.3 197 -109.8 216.5 -89.7C236 -69.6 235.2 -34.8 234.4 0L0 0Z" fill="#c1b9f0"></path><path d="M0 -117.2C16.2 -114.1 32.3 -111.1 42.1 -101.6C51.9 -92.2 55.3 -76.3 66.9 -66.9C78.6 -57.6 98.5 -54.9 108.3 -44.8C118 -34.8 117.6 -17.4 117.2 0L0 0Z" fill="#aba2ea"></path></g></svg>