<svg id="visual" viewBox="0 0 900 600" width="900" height="600" xmlns="http://www.w3.org/2000/svg" xmlns:xlink="http://www.w3.org/1999/xlink" version="1.1"><rect x="0" y="0" width="900" height="600" fill="#ffffff"></rect><defs><linearGradient id="grad1_0" x1="33.3%" y1="100%" x2="100%" y2="0%"><stop offset="20%" stop-color="#715df2" stop-opacity="1"></stop><stop offset="80%" stop-color="#715df2" stop-opacity="1"></stop></linearGradient></defs><defs><linearGradient id="grad1_1" x1="33.3%" y1="100%" x2="100%" y2="0%"><stop offset="20%" stop-color="#715df2" stop-opacity="1"></stop><stop offset="80%" stop-color="#c1acfa" stop-opacity="1"></stop></linearGradient></defs><defs><linearGradient id="grad1_2" x1="33.3%" y1="100%" x2="100%" y2="0%"><stop offset="20%" stop-color="#ffffff" stop-opacity="1"></stop><stop offset="80%" stop-color="#c1acfa" stop-opacity="1"></stop></linearGradient></defs><defs><linearGradient id="grad2_0" x1="0%" y1="100%" x2="66.7%" y2="0%"><stop offset="20%" stop-color="#715df2" stop-opacity="1"></stop><stop offset="80%" stop-color="#715df2" stop-opacity="1"></stop></linearGradient></defs><defs><linearGradient id="grad2_1" x1="0%" y1="100%" x2="66.7%" y2="0%"><stop offset="20%" stop-color="#c1acfa" stop-opacity="1"></stop><stop offset="80%" stop-color="#715df2" stop-opacity="1"></stop></linearGradient></defs><defs><linearGradient id="grad2_2" x1="0%" y1="100%" x2="66.7%" y2="0%"><stop offset="20%" stop-color="#c1acfa" stop-opacity="1"></stop><stop offset="80%" stop-color="#ffffff" stop-opacity="1"></stop></linearGradient></defs><g transform="translate(900, 600)"><path d="M-351.5 0C-346.5 -45.2 -341.5 -90.3 -324.8 -134.5C-308.1 -178.7 -279.7 -222 -241.1 -241.1C-202.5 -260.3 -153.6 -255.4 -111.7 -269.8C-69.8 -284.2 -34.9 -317.9 0 -351.5L0 0Z" fill="#e1d5fd"></path><path d="M-234.4 0C-231 -30.1 -227.6 -60.2 -216.5 -89.7C-205.4 -119.2 -186.5 -148 -160.7 -160.7C-135 -173.5 -102.4 -170.3 -74.5 -179.8C-46.6 -189.4 -23.3 -211.9 0 -234.4L0 0Z" fill="#9c84f7"></path><path d="M-117.2 0C-115.5 -15.1 -113.8 -30.1 -108.3 -44.8C-102.7 -59.6 -93.2 -74 -80.4 -80.4C-67.5 -86.8 -51.2 -85.1 -37.2 -89.9C-23.3 -94.7 -11.6 -106 0 -117.2L0 0Z" fill="#715df2"></path></g><g transform="translate(0, 0)"><path d="M351.5 0C329 42.3 306.5 84.7 281.8 116.7C257 148.8 230.1 170.5 207.9 207.9C185.7 245.3 168.4 298.2 134.5 324.8C100.7 351.3 50.3 351.4 0 351.5L0 0Z" fill="#e1d5fd"></path><path d="M234.4 0C219.4 28.2 204.4 56.4 187.9 77.8C171.4 99.2 153.4 113.7 138.6 138.6C123.8 163.5 112.2 198.8 89.7 216.5C67.1 234.2 33.6 234.3 0 234.4L0 0Z" fill="#9c84f7"></path><path d="M117.2 0C109.7 14.1 102.2 28.2 93.9 38.9C85.7 49.6 76.7 56.8 69.3 69.3C61.9 81.8 56.1 99.4 44.8 108.3C33.6 117.1 16.8 117.1 0 117.2L0 0Z" fill="#715df2"></path></g></svg>