<svg id="visual" viewBox="0 0 900 600" width="900" height="600" xmlns="http://www.w3.org/2000/svg" xmlns:xlink="http://www.w3.org/1999/xlink" version="1.1"><rect x="0" y="0" width="900" height="600" fill="#ffffff"></rect><defs><linearGradient id="grad1_0" x1="33.3%" y1="0%" x2="100%" y2="100%"><stop offset="20%" stop-color="#fcaf3c" stop-opacity="1"></stop><stop offset="80%" stop-color="#fcaf3c" stop-opacity="1"></stop></linearGradient></defs><defs><linearGradient id="grad1_1" x1="33.3%" y1="0%" x2="100%" y2="100%"><stop offset="20%" stop-color="#fcaf3c" stop-opacity="1"></stop><stop offset="80%" stop-color="#ffd69f" stop-opacity="1"></stop></linearGradient></defs><defs><linearGradient id="grad1_2" x1="33.3%" y1="0%" x2="100%" y2="100%"><stop offset="20%" stop-color="#ffffff" stop-opacity="1"></stop><stop offset="80%" stop-color="#ffd69f" stop-opacity="1"></stop></linearGradient></defs><defs><linearGradient id="grad2_0" x1="0%" y1="0%" x2="66.7%" y2="100%"><stop offset="20%" stop-color="#fcaf3c" stop-opacity="1"></stop><stop offset="80%" stop-color="#fcaf3c" stop-opacity="1"></stop></linearGradient></defs><defs><linearGradient id="grad2_1" x1="0%" y1="0%" x2="66.7%" y2="100%"><stop offset="20%" stop-color="#ffd69f" stop-opacity="1"></stop><stop offset="80%" stop-color="#fcaf3c" stop-opacity="1"></stop></linearGradient></defs><defs><linearGradient id="grad2_2" x1="0%" y1="0%" x2="66.7%" y2="100%"><stop offset="20%" stop-color="#ffd69f" stop-opacity="1"></stop><stop offset="80%" stop-color="#ffffff" stop-opacity="1"></stop></linearGradient></defs><g transform="translate(900, 0)"><path d="M0 486.7C-72.1 488.3 -144.2 489.9 -186.3 449.7C-228.3 409.5 -240.4 327.6 -279.3 279.3C-318.2 231 -384.1 216.2 -423.1 175.3C-462.2 134.3 -474.5 67.2 -486.7 0L0 0Z" fill="#ffeacf"></path><path d="M0 324.5C-48.1 325.5 -96.1 326.6 -124.2 299.8C-152.2 273 -160.2 218.4 -186.2 186.2C-212.2 154 -256.1 144.2 -282.1 116.8C-308.1 89.5 -316.3 44.8 -324.5 0L0 0Z" fill="#ffc270"></path><path d="M0 162.2C-24 162.8 -48.1 163.3 -62.1 149.9C-76.1 136.5 -80.1 109.2 -93.1 93.1C-106.1 77 -128 72.1 -141 58.4C-154.1 44.8 -158.2 22.4 -162.2 0L0 0Z" fill="#fcaf3c"></path></g><g transform="translate(0, 600)"><path d="M0 -486.7C53.5 -460.1 107 -433.5 172.2 -415.7C237.4 -398 314.2 -389.2 344.2 -344.2C374.2 -299.2 357.3 -218 373.2 -154.6C389.2 -91.2 438 -45.6 486.7 0L0 0Z" fill="#ffeacf"></path><path d="M0 -324.5C35.7 -306.7 71.4 -289 114.8 -277.2C158.3 -265.3 209.5 -259.5 229.5 -229.5C249.4 -199.5 238.2 -145.3 248.8 -103.1C259.5 -60.8 292 -30.4 324.5 0L0 0Z" fill="#ffc270"></path><path d="M0 -162.2C17.8 -153.4 35.7 -144.5 57.4 -138.6C79.1 -132.7 104.7 -129.7 114.7 -114.7C124.7 -99.7 119.1 -72.7 124.4 -51.5C129.7 -30.4 146 -15.2 162.2 0L0 0Z" fill="#fcaf3c"></path></g></svg>